X-Men 2 (2003) 1080p       

Alternatieve titels: X-Men 2, X2: X-Men United, X2 - XMen United 


 
  Verenigde Staten
Actie / Science-Fiction
133 minuten

geregisseerd door Bryan Singer
met Halle Berry, Hugh Jackman en Ian McKellen

Wanneer een onbekende, vermoedelijk een mutant met buitengewone krachten, 
de president aanvalt krijgen de mutanten met nog meer argwaan en discriminatie te maken dan al het geval was.
Er komt bredere steun in de samenleving voor een registratieplicht voor mutanten. 
Militair leider William Stryker is één van de grootste voorstanders van dit plan, en leidt een aanval op de X-Men opleiding. 
De ontsnapte Magneto begint een opmerkelijke samenwerking met Professor Xavier om Stryker te stoppen. 
Ondertussen begint Wolverine een onderzoek naar zijn verleden.




English

Storyline
Several months had passed since The X-Men defeated Magneto and imprisoned him in a plastic chamber. One day, a mutant going by the name of "Nightcrawler" infiltrates The White House and attempts to assassinate The President. Meanwhile, Logan is trying to discover his past, and wonder why he became a mutant. However, the friction between the humans and mutants is grinding much harder. As a scientist named William Stryker is assigned to discover about Professor X's secret school and his chamber called "Cerebro". Meanwhile, Magneto's partner, Mystique, is planning to break her leader out of prison. Then, Professor X's school is attacked by Stryker's forces. Logan, Rougue, Iceman and others escaped. The rest of The X-Men meet in Boston along with Magneto, who escaped from prison. They must work together to stop Stryker and rescue Professor X. 
 
http://www.imdb.com/title/tt0290334/

Spotinformatie 
Categorie : Beeld 
Formaat : HD Overig 
Bron : Retail
 
Ondertitels : Nederlands (instelbaar)

Format                           : Matroska
File size                        : 7.94 GiB
Duration                         : 2h 13mn
Overall bit rate                 : 8 498 Kbps
Encoded date                     : UTC 2009-04-29 10:32:38
Writing application              : mkvmerge v2.3.0 ('Freak U') built on Sep  8 2008 18:32:16
Writing library                  : libebml v0.7.7 + libmatroska v0.8.1

Video
ID                               : 1
Format                           : AVC
Format/Info                      : Advanced Video Codec
Format profile                   : High@L4.1
Format settings, CABAC           : Yes
Format settings, ReFrames        : 5 frames
Muxing mode                      : Container profile=Unknown@4.1
Codec ID                         : V_MPEG4/ISO/AVC
Duration                         : 2h 13mn
Bit rate                         : 6 988 Kbps
Width                            : 1 920 pixels
Height                           : 800 pixels
Display aspect ratio             : 2.40:1
Frame rate                       : 23.976 fps
Color space                      : YUV
Chroma subsampling               : 4:2:0
Bit depth                        : 8 bits
Scan type                        : Progressive
Bits/(Pixel*Frame)               : 0.190
Stream size                      : 6.37 GiB (80%)
Writing library                  : x264 core 67 r1145M d2e1e1c
Encoding settings                : cabac=1 / ref=5 / deblock=1:-3:-2 / analyse=0x3:0x113 / me=umh / subme=7 / psy_rd=0.9:0.0 / mixed_ref=1 / me_range=16 / chroma_me=1 / trellis=2 / 8x8dct=1 / cqm=0 / deadzone=21,11 / chroma_qp_offset=-4 / threads=3 / nr=0 / decimate=1 / mbaff=0 / bframes=3 / b_pyramid=1 / b_adapt=2 / b_bias=0 / direct=3 / wpredb=1 / keyint=250 / keyint_min=25 / scenecut=40 / rc=2pass / bitrate=6988 / ratetol=1.0 / qcomp=0.60 / qpmin=10 / qpmax=51 / qpstep=4 / cplxblur=20.0 / qblur=0.5 / vbv_maxrate=40000 / vbv_bufsize=40000 / ip_ratio=1.40 / pb_ratio=1.30 / aq=1:1.10 / zones=182870,192207,q=29

Audio
ID                               : 2
Format                           : DTS
Format/Info                      : Digital Theater Systems
Codec ID                         : A_DTS
Duration                         : 2h 13mn
Bit rate mode                    : Constant
Bit rate                         : 1 510 Kbps
Channel(s)                       : 6 channels
Channel positions                : Front: L C R, Side: L R, LFE
Sampling rate                    : 48.0 KHz
Bit depth                        : 24 bits
Stream size                      : 1.41 GiB (18%)
Language                         : English

Text
ID                               : 3
Format                           : UTF-8
Codec ID                         : S_TEXT/UTF8
Codec ID/Info                    : UTF-8 Plain Text
Language                         : Dutch


 
Genre : Actie
Science Fiction
 
Thanks: Jet_Li  

Weblink :  http://www.imdb.com/title/tt0290334/
Weblink :  http://www.moviemeter.nl/film/2100

TBS

Black-Sam
